<?xml version="1.0" encoding="UTF-8" standalone="no"?>
<!DOCTYPE svg PUBLIC "-//W3C//DTD SVG 1.1//EN" "http://www.w3.org/Graphics/SVG/1.1/DTD/svg11.dtd">
<svg version="1.1" xmlns="http://www.w3.org/2000/svg" xmlns:xlink="http://www.w3.org/1999/xlink" preserveAspectRatio="xMidYMid meet" viewBox="4 82.64932545370866 624.5172413793106 271.6564511519513" width="620.52" height="267.66"><defs><path d="M13.56 110.61L200 112.74L614.25 298.13L586.74 214.38L504.92 340L525.37 105.52L581.33 147.39L480.32 207.3L340 120L586.74 180.89L426.15 273L279.89 113.89L207.45 147.39L13.56 110.61Z" id="b7t4trQPt"></path><path d="M40 111.69C40 121.57 32.16 129.59 22.5 129.59C12.84 129.59 5 121.57 5 111.69C5 101.81 12.84 93.79 22.5 93.79C32.16 93.79 40 101.81 40 111.69Z" id="c197yEOdb1"></path><path d="M455.06 271.55C455.06 285.66 443.86 297.12 430.06 297.12C416.26 297.12 405.06 285.66 405.06 271.55C405.06 257.43 416.26 245.98 430.06 245.98C443.86 245.98 455.06 257.43 455.06 271.55Z" id="eX78PNrZz"></path><path d="M625.52 300C625.52 305.65 621.04 310.23 615.52 310.23C610 310.23 605.52 305.65 605.52 300C605.52 294.35 610 289.77 615.52 289.77C621.04 289.77 625.52 294.35 625.52 300Z" id="f19SlTI7sB"></path><path d="M560 117.58C560 134.52 546.56 148.27 530 148.27C513.44 148.27 500 134.52 500 117.58C500 100.65 513.44 86.9 530 86.9C546.56 86.9 560 100.65 560 117.58Z" id="a13NMBnLi"></path><path d="M302.3 115.29C302.3 126.58 293.34 135.75 282.3 135.75C271.26 135.75 262.3 126.58 262.3 115.29C262.3 104 271.26 94.83 282.3 94.83C293.34 94.83 302.3 104 302.3 115.29Z" id="fqgRViIMm"></path><path d="M326.63 103.32C336.04 92.81 352.03 91.74 362.31 100.95C372.59 110.15 373.29 126.16 363.88 136.68C354.46 147.19 338.47 148.26 328.19 139.05C317.91 129.85 317.21 113.84 326.63 103.32Z" id="bDTxXtimz"></path><path d="M490 317.71C497.54 309.3 510.33 308.45 518.55 315.81C526.78 323.17 527.34 335.98 519.8 344.39C512.27 352.81 499.48 353.66 491.26 346.3C483.03 338.93 482.47 326.12 490 317.71Z" id="a7IrQ1pd8S"></path><path d="M558.57 205.33C571.75 190.61 594.14 189.12 608.53 202C622.92 214.89 623.9 237.3 610.72 252.03C597.54 266.75 575.15 268.24 560.76 255.35C546.37 242.47 545.39 220.05 558.57 205.33Z" id="b10LpXCSKQ"></path><path d="M594.94 180C594.94 185.65 590.46 190.23 584.94 190.23C579.42 190.23 574.94 185.65 574.94 180C574.94 174.35 579.42 169.77 584.94 169.77C590.46 169.77 594.94 174.35 594.94 180Z" id="b1RLOMNQkX"></path><path d="M176.12 92.29C185.54 81.77 201.53 80.71 211.81 89.91C222.09 99.12 222.79 115.13 213.37 125.64C203.96 136.16 187.97 137.22 177.69 128.02C167.41 118.81 166.71 102.8 176.12 92.29Z" id="adMe8TzYP"></path><path d="M213.79 150.23C213.79 155.88 209.31 160.46 203.79 160.46C198.27 160.46 193.79 155.88 193.79 150.23C193.79 144.58 198.27 140 203.79 140C209.31 140 213.79 144.58 213.79 150.23Z" id="a1YkM24D1L"></path></defs><g><g><g><use xlink:href="#b7t4trQPt" opacity="1" fill-opacity="0" stroke="#000000" stroke-width="1" stroke-opacity="1"></use></g></g><g><use xlink:href="#c197yEOdb1" opacity="1" fill="#ababab" fill-opacity="1"></use></g><g><use xlink:href="#eX78PNrZz" opacity="1" fill="#474747" fill-opacity="1"></use></g><g><use xlink:href="#f19SlTI7sB" opacity="1" fill="#e08133" fill-opacity="1"></use></g><g><use xlink:href="#a13NMBnLi" opacity="1" fill="#e08133" fill-opacity="1"></use></g><g><use xlink:href="#fqgRViIMm" opacity="1" fill="#e3e3e3" fill-opacity="1"></use></g><g><use xlink:href="#bDTxXtimz" opacity="1" fill="#f09d58" fill-opacity="1"></use></g><g><use xlink:href="#a7IrQ1pd8S" opacity="1" fill="#ffd1ab" fill-opacity="1"></use></g><g><use xlink:href="#b10LpXCSKQ" opacity="1" fill="#e09f69" fill-opacity="1"></use></g><g><use xlink:href="#b1RLOMNQkX" opacity="1" fill="#e08133" fill-opacity="1"></use></g><g><use xlink:href="#adMe8TzYP" opacity="1" fill="#ae5308" fill-opacity="1"></use></g><g><use xlink:href="#a1YkM24D1L" opacity="1" fill="#e08133" fill-opacity="1"></use></g></g></svg>